<svg width="17" height="17" viewBox="0 0 17 17" fill="none" xmlns="http://www.w3.org/2000/svg">
<path d="M3.80637 5.88635H0.532959V16.3626H3.80637V5.88635Z" fill="#7572D5"/>
<path d="M2.10079 0.940186C0.893758 0.940186 0.100006 1.72082 0.100006 2.75729C0.100006 3.77408 0.867519 4.57439 2.05487 4.57439H2.08111C3.31437 4.57439 4.08189 3.76752 4.07533 2.75729C4.04909 1.72082 3.30781 0.940186 2.10079 0.940186Z" fill="#7572D5"/>
<path d="M12.7476 5.78796C10.8714 5.78796 9.6972 6.81131 9.48072 7.53291V5.88636H5.8006C5.84652 6.75883 5.8006 16.3626 5.8006 16.3626H9.48072V10.7014C9.48072 10.3799 9.4676 10.065 9.55944 9.84201C9.80872 9.21225 10.3532 8.55626 11.3306 8.55626C12.6098 8.55626 13.1871 9.52713 13.1871 10.9441V16.3626H16.9V10.5374C16.9 7.29675 15.0764 5.78796 12.7476 5.78796Z" fill="#7572D5"/>
</svg>
