<svg width="17" height="11" viewBox="0 0 17 11" fill="none" xmlns="http://www.w3.org/2000/svg">
<path d="M16.1696 7.99409C15.8038 7.53913 15.3881 7.13136 14.9861 6.73701C14.8432 6.59676 14.6954 6.45176 14.5529 6.30758C14.1439 5.8932 14.129 5.73752 14.4529 5.26684C14.6769 4.9424 14.9145 4.61753 15.1442 4.30335C15.3526 4.01829 15.568 3.72351 15.7746 3.42777L15.817 3.36697C16.2117 2.80103 16.6199 2.21583 16.8372 1.50988C16.8936 1.32363 16.9528 1.04955 16.8174 0.820364C16.682 0.591372 16.4195 0.521511 16.2337 0.48888C16.1418 0.472732 16.0506 0.470528 15.9659 0.470528L13.3809 0.468611L13.3595 0.46842C12.9687 0.46842 12.7053 0.65927 12.5544 1.05194C12.4103 1.42713 12.252 1.82665 12.0714 2.20653C11.7119 2.96298 11.2554 3.83425 10.5948 4.56089L10.5669 4.5918C10.4889 4.67867 10.4005 4.77704 10.3359 4.77704C10.326 4.77704 10.3152 4.77508 10.303 4.7711C10.1662 4.71586 10.0744 4.37263 10.0785 4.21298C10.0786 4.21077 10.0786 4.20857 10.0786 4.20636L10.0768 1.1105C10.0768 1.09976 10.0761 1.08913 10.0747 1.07849C10.009 0.575225 9.86332 0.261948 9.31294 0.150256C9.29832 0.147237 9.28339 0.145752 9.2685 0.145752H6.5806C6.14268 0.145752 5.90138 0.330181 5.67456 0.606227C5.61334 0.680018 5.48589 0.833637 5.54906 1.01998C5.61315 1.20911 5.8212 1.24955 5.88894 1.26268C6.22522 1.32899 6.41477 1.54213 6.46846 1.91453C6.56219 2.56121 6.57371 3.25144 6.50471 4.08676C6.48547 4.31892 6.44742 4.49822 6.38471 4.65141C6.37015 4.68715 6.31849 4.80383 6.26582 4.80388C6.24908 4.80388 6.20067 4.79707 6.11248 4.73411C5.90397 4.5861 5.75142 4.37488 5.57357 4.11398C4.96853 3.22796 4.46074 2.25191 4.02097 1.12938C3.85787 0.716146 3.55327 0.484807 3.16289 0.478003C2.73395 0.471247 2.34504 0.467988 1.97413 0.467988C1.56886 0.467988 1.19314 0.47187 0.82625 0.479776C0.512169 0.485526 0.294921 0.583083 0.180609 0.769956C0.0661124 0.956973 0.0735575 1.20264 0.202759 1.50001C1.23702 3.88254 2.17478 5.61486 3.24345 7.11713C3.99225 8.16831 4.74333 8.89592 5.60686 9.40676C6.51664 9.94605 7.5362 10.2083 8.72371 10.2083C8.85833 10.2083 8.99752 10.2048 9.13786 10.198C9.8279 10.1632 10.0839 9.90441 10.1163 9.20824C10.1317 8.85246 10.1692 8.47934 10.338 8.16113C10.4445 7.96064 10.5439 7.96064 10.5765 7.96064C10.6394 7.96064 10.7174 7.99064 10.8011 8.04685C10.9513 8.14843 11.0801 8.28451 11.1857 8.40339C11.285 8.51633 11.3833 8.63042 11.4817 8.74455C11.6939 8.99089 11.9134 9.24557 12.1427 9.48711C12.6445 10.0162 13.1973 10.2488 13.8323 10.1983H16.2023C16.2073 10.1983 16.2124 10.1981 16.2175 10.1978C16.4536 10.1817 16.6582 10.0459 16.7786 9.8254C16.9279 9.55223 16.9249 9.20373 16.7706 8.89295C16.5956 8.54153 16.3685 8.24129 16.1696 7.99409Z" fill="#7572D5"/>
</svg>
